<?xml version="1.0" standalone="no"?>
<!DOCTYPE svg PUBLIC "-//W3C//DTD SVG 20010904//EN"
 "http://www.w3.org/TR/2001/REC-SVG-20010904/DTD/svg10.dtd">
<svg version="1.0" xmlns="http://www.w3.org/2000/svg"
 width="297.000000pt" height="92.000000pt" viewBox="0 0 297.000000 92.000000"
 preserveAspectRatio="xMidYMid meet">

<g transform="translate(0.000000,92.000000) scale(0.100000,-0.100000)"
fill="#2C2A37" stroke="none">
<path d="M400 583 c0 -166 -4 -294 -11 -316 -18 -67 -98 -84 -210 -47 -33 11
-63 19 -67 16 -4 -2 -16 -21 -26 -41 -24 -43 -23 -44 74 -77 142 -49 288 -19
337 68 22 38 23 47 23 357 l0 317 -60 0 -60 0 0 -277z"/>
<path d="M2475 826 c-130 -60 -195 -233 -167 -439 12 -81 63 -206 88 -214 6
-2 22 23 36 55 20 46 23 63 15 83 -6 13 -11 82 -11 154 -1 147 13 201 65 251
25 23 39 29 77 29 26 0 56 -3 67 -8 18 -6 24 0 43 38 12 25 22 47 22 50 0 10
-79 25 -130 25 -37 0 -72 -8 -105 -24z"/>
<path d="M700 470 l0 -370 60 0 60 0 0 370 0 370 -60 0 -60 0 0 -370z"/>
<path d="M860 795 c0 -44 1 -45 33 -45 55 0 105 -19 131 -51 22 -25 26 -41 26
-90 0 -104 -42 -149 -140 -149 l-50 0 0 -46 0 -47 73 5 c110 7 186 55 221 140
23 53 21 150 -4 197 -40 79 -134 131 -237 131 l-53 0 0 -45z"/>
<path d="M1800 788 c-6 -22 -9 -45 -7 -52 3 -6 69 -29 148 -50 79 -22 146 -41
148 -42 2 -2 -90 -123 -203 -271 -113 -147 -206 -271 -206 -275 0 -4 21 -13
48 -21 36 -11 50 -11 60 -2 32 29 470 620 464 626 -4 3 -90 29 -192 58 -102
28 -200 55 -217 60 -32 9 -33 9 -43 -31z"/>
<path d="M2745 731 l-27 -54 16 -79 c19 -91 20 -139 6 -227 -14 -80 -42 -136
-80 -156 -33 -17 -112 -20 -139 -5 -16 8 -22 3 -39 -38 l-21 -47 27 -14 c41
-23 157 -19 212 6 61 27 116 86 143 153 19 48 22 73 22 205 0 141 -2 153 -26
205 -14 30 -35 66 -46 80 l-21 24 -27 -53z"/>
<path d="M1300 385 l0 -285 65 0 65 0 0 254 c0 139 -3 268 -6 285 -6 30 -7 31
-65 31 l-59 0 0 -285z"/>
<path d="M1503 659 c-32 -9 -33 -11 -33 -62 l0 -52 78 2 77 2 3 60 3 61 -48
-1 c-26 0 -63 -5 -80 -10z"/>
</g>
</svg>
